<svg xmlns="http://www.w3.org/2000/svg" version="1.1" xmlns:xlink="http://www.w3.org/1999/xlink" xmlns:svgjs="http://svgjs.dev/svgjs" width="100%" height="100%" viewBox="0 0 1000 600"><rect width="1000" height="600" x="0" y="0" fill="#f7df1e"/><g><rect width="333.3333333333333" height="333.3333333333333" rx="13.333333333333334" ry="13.333333333333334" y="501.1718500601872" fill="#000000" transform="matrix(0.26098780315300796,0,0,0.26098780315300796,0,125.70230277513423)" x="478.94970703124994"/><path d="M613.5832763152056 592.8385146089337L613.5832763152056 696.0299996278305Q613.5832763152056 718.3704242195505 601.1423784936261 730.6044662578732Q588.7014806720466 742.8385082961961 567.2180300395329 742.8385082961961L567.2180300395329 742.8385082961961Q553.801954954029 742.8385082961961 542.7499459628872 737.1943004959071Q531.6683861455658 731.550092695618 523.3941548152991 721.561913446939L523.3941548152991 721.561913446939L535.3031377656472 703.2699520418138Q542.7499459628872 711.1304718055671 551.0537281193334 715.3857907754185Q559.3279594496 719.64110974527 567.0111742562761 719.64110974527L567.0111742562761 719.64110974527Q576.9993535049551 719.64110974527 582.6435613052442 713.376334595211Q588.2877691055332 707.0820086189724 588.2877691055332 695.379881451881L588.2877691055332 695.379881451881L588.2877691055332 614.3219652414474L536.7806790746234 614.3219652414474L536.7806790746234 592.8385146089337L613.5832763152056 592.8385146089337ZM649.546631775686 592.8385146089337L708.9142415703492 592.8385146089337Q736.9875264408967 592.8385146089337 752.4130577066081 606.1363863897193Q767.8385889723195 619.434258170505 767.8385889723195 643.4886306806374L767.8385889723195 643.4886306806374Q767.8385889723195 668.577282107053 752.4130577066081 682.5252720637882Q736.9875264408967 696.4437111943438 708.9142415703492 696.4437111943438L708.9142415703492 696.4437111943438L663.5832742109598 696.4437111943438L674.6648340282811 685.3917022032019L674.6648340282811 741.7746785537332L649.546631775686 741.7746785537332L649.546631775686 592.8385146089337ZM663.5832742109598 674.9602605618301L707.8504118278863 674.9602605618301Q725.0785434905487 674.9602605618301 734.4461553894577 667.4247998860516Q743.8137672883666 659.8597883840935 743.8137672883666 644.1091980304074L743.8137672883666 644.1091980304074Q743.8137672883666 629.0087258526706 734.4461553894577 621.6801209601488Q725.0785434905487 614.3219652414474 707.8504118278863 614.3219652414474L707.8504118278863 614.3219652414474L663.5832742109598 614.3219652414474L674.6648340282811 603.2699562503055L674.6648340282811 686.0418203791515L663.5832742109598 674.9602605618301Z " fill="#f7df1e" transform="matrix(0.26098780315300796,0,0,0.26098780315300796,0,125.70230277513423)"/><path d="M984.2857449944537 594.7269524288622L984.2857449944537 696.1795941417596Q984.2857449944537 718.1435681208404 972.054484352664 730.1714586331942Q959.8232237108742 742.199349145548 938.7017831251708 742.199349145548L938.7017831251708 742.199349145548Q925.5117775874688 742.199349145548 914.6460021004632 736.6502498995104Q903.7511737378239 731.1011506534727 895.6163685603865 721.2812786892805L895.6163685603865 721.2812786892805L907.3246774407695 703.2975486720172Q914.6460021004632 711.0256135905827 922.8098601535343 715.2092276818362Q930.9446653309716 719.3928417730897 938.4984129957348 719.3928417730897L938.4984129957348 719.3928417730897Q948.3182849599272 719.3928417730897 953.8673842059646 713.2336321387443Q959.4164834520024 707.0453696287651 959.4164834520024 695.540430877818L959.4164834520024 695.540430877818L959.4164834520024 615.8483930145657L908.7773212224548 615.8483930145657L908.7773212224548 594.7269524288622L984.2857449944537 594.7269524288622ZM1000.6134611005958 741.1534456227347L1065.2561093855893 594.7269524288622L1090.5611640625461 594.7269524288622L1154.564649083598 741.1534456227347L1128.2136908838274 741.1534456227347L1077.167788395408 619.6252668469473L1026.3543089120585 741.1534456227347L1000.6134611005958 741.1534456227347ZM1032.8331001783745 707.2777926338348L1032.8331001783745 686.3597221775673L1120.485625965262 686.3597221775673L1120.485625965262 707.2777926338348L1032.8331001783745 707.2777926338348ZM1213.774409625088 741.1534456227347L1155.4071824769753 594.7269524288622L1181.9615108061816 594.7269524288622L1227.1677852922262 715.2092276818362L1272.7517471615088 594.7269524288622L1298.4925949729713 594.7269524288622L1239.2828344314812 741.1534456227347L1213.774409625088 741.1534456227347ZM1299.3351283663487 741.1534456227347L1363.9487237757085 594.7269524288622L1389.2828313282994 594.7269524288622L1453.2863163493512 741.1534456227347L1426.9353581495807 741.1534456227347L1375.8894556611613 619.6252668469473L1325.0469233021777 741.1534456227347L1299.3351283663487 741.1534456227347ZM1331.525714568494 707.2777926338348L1331.525714568494 686.3597221775673L1419.1782403553816 686.3597221775673L1419.1782403553816 707.2777926338348L1331.525714568494 707.2777926338348ZM1572.08352481557 607.9169579665642L1561.856912592506 628.602605417762Q1553.896424668871 623.6055108087648 1546.1683597503052 620.6711703697607Q1538.411241956106 617.7368299307565 1531.525710430918 616.4875562785072Q1524.6111260300963 615.2382826262578 1518.9748681571577 615.2382826262578L1518.9748681571577 615.2382826262578Q1508.0800397945181 615.2382826262578 1501.6012485282022 619.4218967175113Q1495.1224572618858 623.6055108087648 1495.1224572618858 631.5369458567662L1495.1224572618858 631.5369458567662Q1495.1224572618858 638.654900387024 1499.3932299800404 643.1580961102483Q1503.693055573829 647.6612918334724 1510.6947986015516 650.4794207699418Q1517.6965416292746 653.2975497064111 1526.1799813143166 655.7960970109099Q1534.663420999358 658.3236971910421 1543.030649181865 661.3451962569474Q1551.397877364372 664.3957481984864 1558.486779018996 669.1894726780478Q1565.604733549254 674.0122500332427 1569.7883476405073 681.4207333198375Q1573.971961731761 688.8582694820659 1573.971961731761 700.159838103577L1573.971961731761 700.159838103577Q1573.971961731761 713.1174206362094 1566.854007201503 722.6467638440646Q1559.765105546879 732.1470541762861 1547.3014219000197 737.3765717903531Q1534.866791128794 742.6060894044199 1518.7424451520878 742.6060894044199L1518.7424451520878 742.6060894044199Q1507.2375064011408 742.6060894044199 1496.3717309141352 739.5845903385145Q1485.5059554271297 736.5630912726093 1475.9766122192746 731.3335736585424Q1466.4472690114194 726.1040560444756 1458.9225742222898 719.1894716436537L1458.9225742222898 719.1894716436537L1469.5849795798595 698.9105644513278Q1477.1387272446227 705.7960959765159 1485.5931140540306 710.6188733317109Q1494.0765537390726 715.4125978112721 1502.7633635535503 717.9401979914045Q1511.4211204923945 720.438745295903 1519.1782382865936 720.438745295903L1519.1782382865936 720.438745295903Q1532.135820819226 720.438745295903 1539.3699868520184 715.4125978112721Q1546.5751000091773 710.4155032022749 1546.5751000091773 701.4091117558264L1546.5751000091773 701.4091117558264Q1546.5751000091773 694.0877870961327 1542.275274415389 689.5845913729086Q1538.0045016972344 685.0813956496843 1531.0027586695114 682.1761080863138Q1523.9719627661548 679.2417676473096 1515.517575956747 676.946590472247Q1507.034136271705 674.6223604215505 1498.5797494622966 671.6008613556452Q1490.096309777255 668.57936228974 1483.094566749532 663.9599550639808Q1476.0928237218095 659.3696007138554 1471.7929981280208 652.0482760541619Q1467.4931725342326 644.7269513944683 1467.4931725342326 633.425382772957L1467.4931725342326 633.425382772957Q1467.4931725342326 621.0779106286326 1474.2043868056185 611.9843605552829Q1480.8865482013707 602.8908104819333 1492.9144387137244 597.8646629973024Q1504.942329226078 592.8385155126714 1520.8342521977147 592.8385155126714L1520.8342521977147 592.8385155126714Q1535.0701612582302 592.8385155126714 1548.4635369253679 597.0221296039249Q1561.856912592506 601.2057436951784 1572.08352481557 607.9169579665642L1572.08352481557 607.9169579665642ZM1723.3327953646371 615.8483930145657L1708.8935161746863 632.7862195090156Q1700.9620811266846 624.0122510676367 1690.0672527640454 618.9861035830057Q1679.2014772770399 613.9599560983748 1668.1032787849645 613.9599560983748L1668.1032787849645 613.9599560983748Q1657.237503297959 613.9599560983748 1647.7081600901038 618.0564115627272Q1638.2078697578822 622.1238141514459 1630.9737037250898 629.4451388111395Q1623.768590567931 636.7664634708332 1619.7883466061135 646.4991768081243Q1615.808102644296 656.2318901454154 1615.808102644296 667.5334587669266L1615.808102644296 667.5334587669266Q1615.808102644296 678.6026043833681 1619.7883466061135 688.3353177206592Q1623.768590567931 698.0680310579504 1630.9737037250898 705.389355717644Q1638.2078697578822 712.7106803773376 1647.7081600901038 716.894294468591Q1657.237503297959 721.0779085598446 1668.1032787849645 721.0779085598446L1668.1032787849645 721.0779085598446Q1679.2014772770399 721.0779085598446 1689.8638826346096 716.3713427071845Q1700.5262879921793 711.6647768545242 1708.8935161746863 703.5009188014532L1708.8935161746863 703.5009188014532L1723.5361654940734 718.7827313847819Q1716.2148408343796 726.1040560444756 1706.9179206315944 731.5369437879783Q1697.591947553175 736.9698315314812 1687.452493957012 739.9041719704853Q1677.3130403608488 742.8385124094895 1666.8540051327154 742.8385124094895L1666.8540051327154 742.8385124094895Q1650.7587120316425 742.8385124094895 1636.9295432299991 737.0860430340159Q1623.1294273039894 731.3335736585424 1612.7866035783904 721.0779085598446Q1602.414726977158 710.8222434611467 1596.5750989747835 697.1092861620381Q1590.706418096775 683.425381738563 1590.706418096775 667.7368288963625L1590.706418096775 667.7368288963625Q1590.706418096775 652.0482760541619 1596.5750989747835 638.5386888844891Q1602.414726977158 625.05815459045 1612.9899737078263 614.8024894917522Q1623.565220438495 604.5468243930544 1637.4524949914062 598.9105665201157Q1651.3688224199504 593.274308647177 1667.6965385260928 593.274308647177L1667.6965385260928 593.274308647177Q1678.1555737542262 593.274308647177 1688.1788158478548 595.9762260811116Q1698.2311108171166 598.7071963906798 1707.2375022635651 603.7333438753108Q1716.2148408343796 608.7304384843079 1723.3327953646371 615.8483930145657L1723.3327953646371 615.8483930145657ZM1748.6378500415944 594.7269524288622L1808.0509807125209 594.7269524288622Q1836.290375828482 594.7269524288622 1851.659347038712 607.8007464640294Q1867.0283182489416 620.8745404991965 1867.0283182489416 644.5235812650324L1867.0283182489416 644.5235812650324Q1867.0283182489416 669.1894726780478 1851.659347038712 682.9024299771564Q1836.290375828482 696.5863344006314 1808.0509807125209 696.5863344006314L1808.0509807125209 696.5863344006314L1773.3327943302434 696.5863344006314L1773.3327943302434 741.1534456227347L1748.6378500415944 741.1534456227347L1748.6378500415944 594.7269524288622ZM1773.3327943302434 675.464893814928L1808.0509807125209 675.464893814928Q1824.9888072069707 675.464893814928 1834.31478028539 668.0564105283332Q1843.6117004881758 660.6188743661048 1843.6117004881758 645.1336916533402L1843.6117004881758 645.1336916533402Q1843.6117004881758 630.287672204517 1834.31478028539 623.0825590473581Q1824.9888072069707 615.8483930145657 1808.0509807125209 615.8483930145657L1808.0509807125209 615.8483930145657L1773.3327943302434 615.8483930145657L1773.3327943302434 675.464893814928ZM1841.519893442549 741.1534456227347L1808.8935141058982 686.9698325658751L1833.1526652600419 686.9698325658751L1869.5559184290737 741.1534456227347L1841.519893442549 741.1534456227347ZM1899.8871205906617 741.1534456227347L1899.8871205906617 594.7269524288622L1924.5530120036774 594.7269524288622L1924.5530120036774 741.1534456227347L1899.8871205906617 741.1534456227347ZM1963.048072218336 594.7269524288622L2021.4152993664493 594.7269524288622Q2049.015531218469 594.7269524288622 2064.1811322992626 607.8007464640294Q2079.346733380057 620.8745404991965 2079.346733380057 644.5235812650324L2079.346733380057 644.5235812650324Q2079.346733380057 669.1894726780478 2064.1811322992626 682.9024299771564Q2049.015531218469 696.5863344006314 2021.4152993664493 696.5863344006314L2021.4152993664493 696.5863344006314L1976.8481881443458 696.5863344006314L1987.7430165069854 685.7205589136257L1987.7430165069854 741.1534456227347L1963.048072218336 741.1534456227347L1963.048072218336 594.7269524288622ZM1976.8481881443458 675.464893814928L2020.3693958436356 675.464893814928Q2037.3072223380855 675.464893814928 2046.5169839139703 668.0564105283332Q2055.7267454898547 660.6188743661048 2055.7267454898547 645.1336916533402L2055.7267454898547 645.1336916533402Q2055.7267454898547 630.287672204517 2046.5169839139703 623.0825590473581Q2037.3072223380855 615.8483930145657 2020.3693958436356 615.8483930145657L2020.3693958436356 615.8483930145657L1976.8481881443458 615.8483930145657L1987.7430165069854 604.98261752756L1987.7430165069854 686.3597221775673L1976.8481881443458 675.464893814928ZM2086.4646879103143 615.8483930145657L2086.4646879103143 594.7269524288622L2203.809252594848 594.7269524288622L2203.809252594848 615.8483930145657L2157.382757332188 615.8483930145657L2157.382757332188 741.1534456227347L2132.687813043539 741.1534456227347L2132.687813043539 615.8483930145657L2086.4646879103143 615.8483930145657ZM2281.4385362881076 594.7269524288622L2339.7767105605867 594.7269524288622Q2367.40599528824 594.7269524288622 2382.571596369034 607.8007464640294Q2397.737197449828 620.8745404991965 2397.737197449828 644.5235812650324L2397.737197449828 644.5235812650324Q2397.737197449828 669.1894726780478 2382.571596369034 682.9024299771564Q2367.40599528824 696.5863344006314 2339.7767105605867 696.5863344006314L2339.7767105605867 696.5863344006314L2295.2386522141173 696.5863344006314L2306.104427701123 685.7205589136257L2306.104427701123 741.1534456227347L2281.4385362881076 741.1534456227347L2281.4385362881076 594.7269524288622ZM2295.2386522141173 675.464893814928L2338.7308070377735 675.464893814928Q2355.697686407857 675.464893814928 2364.8783951081077 668.0564105283332Q2374.088156683992 660.6188743661048 2374.088156683992 645.1336916533402L2374.088156683992 645.1336916533402Q2374.088156683992 630.287672204517 2364.8783951081077 623.0825590473581Q2355.697686407857 615.8483930145657 2338.7308070377735 615.8483930145657L2338.7308070377735 615.8483930145657L2295.2386522141173 615.8483930145657L2306.104427701123 604.98261752756L2306.104427701123 686.3597221775673L2295.2386522141173 675.464893814928ZM2422.1997187334073 594.7269524288622L2481.6128494043337 594.7269524288622Q2509.8522445202952 594.7269524288622 2525.221215730525 607.8007464640294Q2540.5901869407544 620.8745404991965 2540.5901869407544 644.5235812650324L2540.5901869407544 644.5235812650324Q2540.5901869407544 669.1894726780478 2525.221215730525 682.9024299771564Q2509.8522445202952 696.5863344006314 2481.6128494043337 696.5863344006314L2481.6128494043337 696.5863344006314L2446.8946630220566 696.5863344006314L2446.8946630220566 741.1534456227347L2422.1997187334073 741.1534456227347L2422.1997187334073 594.7269524288622ZM2446.8946630220566 675.464893814928L2481.6128494043337 675.464893814928Q2498.5506758987835 675.464893814928 2507.876648977203 668.0564105283332Q2517.1735691799886 660.6188743661048 2517.1735691799886 645.1336916533402L2517.1735691799886 645.1336916533402Q2517.1735691799886 630.287672204517 2507.876648977203 623.0825590473581Q2498.5506758987835 615.8483930145657 2481.6128494043337 615.8483930145657L2481.6128494043337 615.8483930145657L2446.8946630220566 615.8483930145657L2446.8946630220566 675.464893814928ZM2515.0817621343617 741.1534456227347L2482.455382797711 686.9698325658751L2506.7145339518547 686.9698325658751L2543.117787120887 741.1534456227347L2515.0817621343617 741.1534456227347ZM2638.9051180852116 593.274308647177L2638.9051180852116 593.274308647177Q2655.232834191354 593.274308647177 2669.3525317493345 598.9105665201157Q2683.472229307315 604.5468243930544 2694.0474760379834 614.8024894917522Q2704.5936698930186 625.05815459045 2710.549509397928 638.5386888844891Q2716.5344017784714 652.0482760541619 2716.5344017784714 667.7368288963625L2716.5344017784714 667.7368288963625Q2716.5344017784714 683.425381738563 2710.549509397928 697.1092861620381Q2704.5936698930186 710.8222434611467 2694.0474760379834 721.0779085598446Q2683.472229307315 731.3335736585424 2669.3525317493345 737.0860430340159Q2655.232834191354 742.8385124094895 2638.9051180852116 742.8385124094895L2638.9051180852116 742.8385124094895Q2622.6064548547033 742.8385124094895 2608.4867572967228 737.0860430340159Q2594.3670597387427 731.3335736585424 2583.7918130080734 721.0779085598446Q2573.2456191530387 710.8222434611467 2567.2607267724957 697.1092861620381Q2561.3048872675863 683.425381738563 2561.3048872675863 667.7368288963625L2561.3048872675863 667.7368288963625Q2561.3048872675863 652.0482760541619 2567.2607267724957 638.451530257588Q2573.2456191530387 624.8547844610142 2583.7918130080734 614.7153308648511Q2594.3670597387427 604.5468243930544 2608.4867572967228 598.9105665201157Q2622.6064548547033 593.274308647177 2638.9051180852116 593.274308647177ZM2639.1375410902815 614.1923791034445L2639.1375410902815 614.1923791034445Q2628.2427127276424 614.1923791034445 2618.742422395421 618.2597816921632Q2609.213079187565 622.3271842808819 2601.891754527872 629.6485089405754Q2594.570429868178 636.969833600269 2590.5030272794597 646.7025469375602Q2586.4065718151073 656.4352602748513 2586.4065718151073 667.7368288963625L2586.4065718151073 667.7368288963625Q2586.4065718151073 679.0383975178737 2590.5901859063606 688.8582694820659Q2594.7737999976143 698.6781414462581 2602.095124657308 706.1156776084866Q2609.4164493170015 713.553213770715 2618.945792524856 717.7368278619685Q2628.4460828570777 721.920441953222 2639.1375410902815 721.920441953222L2639.1375410902815 721.920441953222Q2649.799946447851 721.920441953222 2659.3002367800727 717.7368278619685Q2668.829579987928 713.553213770715 2675.9475345181854 706.1156776084866Q2683.0654890484434 698.6781414462581 2687.1328916371617 688.8582694820659Q2691.2002942258805 679.0383975178737 2691.2002942258805 667.7368288963625L2691.2002942258805 667.7368288963625Q2691.2002942258805 656.4352602748513 2687.1328916371617 646.7025469375602Q2683.0654890484434 636.969833600269 2675.9475345181854 629.6485089405754Q2668.829579987928 622.3271842808819 2659.3002367800727 618.2597816921632Q2649.799946447851 614.1923791034445 2639.1375410902815 614.1923791034445ZM2811.9149924839244 594.7269524288622L2811.9149924839244 696.1795941417596Q2811.9149924839244 718.1435681208404 2799.6837318421344 730.1714586331942Q2787.423418324711 742.199349145548 2766.3019777390073 742.199349145548L2766.3019777390073 742.199349145548Q2753.1410250769395 742.199349145548 2742.2461967143 736.6502498995104Q2731.3804212272944 731.1011506534727 2723.216563174223 721.2812786892805L2723.216563174223 721.2812786892805L2734.9248720546066 703.2975486720172Q2742.2461967143 711.0256135905827 2750.410054767371 715.2092276818362Q2758.5739128204423 719.3928417730897 2766.0986076095714 719.3928417730897L2766.0986076095714 719.3928417730897Q2775.9184795737638 719.3928417730897 2781.4675788198015 713.2336321387443Q2787.016678065839 707.0453696287651 2787.016678065839 695.540430877818L2787.016678065839 695.540430877818L2787.016678065839 615.8483930145657L2736.4065687119255 615.8483930145657L2736.4065687119255 594.7269524288622L2811.9149924839244 594.7269524288622ZM2847.272342130143 741.1534456227347L2847.272342130143 594.7269524288622L2951.8626944114803 594.7269524288622L2951.8626944114803 615.8483930145657L2871.9382335431583 615.8483930145657L2871.9382335431583 657.0744235387928L2943.4954662289733 657.0744235387928L2943.4954662289733 677.9924939950603L2871.9382335431583 677.9924939950603L2871.9382335431583 720.0320050370312L2954.361241715979 720.0320050370312L2954.361241715979 741.1534456227347L2847.272342130143 741.1534456227347ZM3104.971349001105 615.8483930145657L3090.532069811153 632.7862195090156Q3082.600634763152 624.0122510676367 3071.7058064005128 618.9861035830057Q3060.8400309135072 613.9599560983748 3049.741832421432 613.9599560983748L3049.741832421432 613.9599560983748Q3038.8760569344263 613.9599560983748 3029.346713726571 618.0564115627272Q3019.8464233943496 622.1238141514459 3012.612257361557 629.4451388111395Q3005.4071442043983 636.7664634708332 3001.4269002425804 646.4991768081243Q2997.446656280763 656.2318901454154 2997.446656280763 667.5334587669266L2997.446656280763 667.5334587669266Q2997.446656280763 678.6026043833681 3001.4269002425804 688.3353177206592Q3005.4071442043983 698.0680310579504 3012.612257361557 705.389355717644Q3019.8464233943496 712.7106803773376 3029.346713726571 716.894294468591Q3038.8760569344263 721.0779085598446 3049.741832421432 721.0779085598446L3049.741832421432 721.0779085598446Q3060.8400309135072 721.0779085598446 3071.5024362710765 716.3713427071845Q3082.1648416286466 711.6647768545242 3090.532069811153 703.5009188014532L3090.532069811153 703.5009188014532L3105.174719130541 718.7827313847819Q3097.853394470847 726.1040560444756 3088.5564742680613 731.5369437879783Q3079.2305011896424 736.9698315314812 3069.0910475934793 739.9041719704853Q3058.9515939973166 742.8385124094895 3048.492558769183 742.8385124094895L3048.492558769183 742.8385124094895Q3032.3972656681103 742.8385124094895 3018.5680968664665 737.0860430340159Q3004.7679809404567 731.3335736585424 2994.425157214858 721.0779085598446Q2984.0532806136252 710.8222434611467 2978.213652611251 697.1092861620381Q2972.344971733242 683.425381738563 2972.344971733242 667.7368288963625L2972.344971733242 667.7368288963625Q2972.344971733242 652.0482760541619 2978.213652611251 638.5386888844891Q2984.0532806136252 625.05815459045 2994.628527344294 614.8024894917522Q3005.2037740749624 604.5468243930544 3019.091048627873 598.9105665201157Q3033.007376056418 593.274308647177 3049.33509216256 593.274308647177L3049.33509216256 593.274308647177Q3059.7941273906936 593.274308647177 3069.817369484322 595.9762260811116Q3079.869664453584 598.7071963906798 3088.876055900032 603.7333438753108Q3097.853394470847 608.7304384843079 3104.971349001105 615.8483930145657L3104.971349001105 615.8483930145657ZM3112.93183692474 615.8483930145657L3112.93183692474 594.7269524288622L3230.2764016092738 594.7269524288622L3230.2764016092738 615.8483930145657L3183.8208534709797 615.8483930145657L3183.8208534709797 741.1534456227347L3159.1549620579644 741.1534456227347L3159.1549620579644 615.8483930145657L3112.93183692474 615.8483930145657ZM3350.7586768622477 607.9169579665642L3340.50301176355 628.602605417762Q3332.5715767155484 623.6055108087648 3324.8144589213493 620.6711703697607Q3317.086394002784 617.7368299307565 3310.171809601962 616.4875562785072Q3303.286278076774 615.2382826262578 3297.6209673282015 615.2382826262578L3297.6209673282015 615.2382826262578Q3286.755191841196 615.2382826262578 3280.2764005748795 619.4218967175113Q3273.7685564329295 623.6055108087648 3273.7685564329295 631.5369458567662L3273.7685564329295 631.5369458567662Q3273.7685564329295 638.654900387024 3278.068382026718 643.1580961102483Q3282.368207620507 647.6612918334724 3289.3699506482294 650.4794207699418Q3296.3716936759524 653.2975497064111 3304.855133360994 655.7960970109099Q3313.3095201704023 658.3236971910421 3321.6767483529093 661.3451962569474Q3330.0439765354163 664.3957481984864 3337.161931065674 669.1894726780478Q3344.279885595932 674.0122500332427 3348.463499687185 681.4207333198375Q3352.647113778439 688.8582694820659 3352.647113778439 700.159838103577L3352.647113778439 700.159838103577Q3352.647113778439 713.1174206362094 3345.529159248181 722.6467638440646Q3338.411204717923 732.1470541762861 3325.9765739466975 737.3765717903531Q3313.5128902998385 742.6060894044199 3297.4175971987656 742.6060894044199L3297.4175971987656 742.6060894044199Q3285.9126584478186 742.6060894044199 3275.046882960813 739.5845903385145Q3264.152054598174 736.5630912726093 3254.6517642659524 731.3335736585424Q3245.1224210580967 726.1040560444756 3237.5977262689676 719.1894716436537L3237.5977262689676 719.1894716436537L3248.260131626537 698.9105644513278Q3255.7848264156664 705.7960959765159 3264.2682661007084 710.6188733317109Q3272.7226529101163 715.4125978112721 3281.409462724594 717.9401979914045Q3290.096272539072 720.438745295903 3297.8243374576377 720.438745295903L3297.8243374576377 720.438745295903Q3310.8109728659033 720.438745295903 3318.016086023062 715.4125978112721Q3325.250252055855 710.4155032022749 3325.250252055855 701.4091117558264L3325.250252055855 701.4091117558264Q3325.250252055855 694.0877870961327 3320.9504264620664 689.5845913729086Q3316.650600868278 685.0813956496843 3309.648857840555 682.1761080863138Q3302.6471148128326 679.2417676473096 3294.163675127791 676.946590472247Q3285.7092883183823 674.6223604215505 3277.225848633341 671.6008613556452Q3268.771461823933 668.57936228974 3261.740665920576 663.9599550639808Q3254.738922892853 659.3696007138554 3250.4681501746986 652.0482760541619Q3246.16832458091 644.7269513944683 3246.16832458091 633.425382772957L3246.16832458091 633.425382772957Q3246.16832458091 621.0779106286326 3252.850485976662 611.9843605552829Q3259.561700248048 602.8908104819333 3271.589590760402 597.8646629973024Q3283.617481272756 592.8385155126714 3299.5094042443925 592.8385155126714L3299.5094042443925 592.8385155126714Q3313.7453133049075 592.8385155126714 3327.109636096412 597.0221296039249Q3340.50301176355 601.2057436951784 3350.7586768622477 607.9169579665642L3350.7586768622477 607.9169579665642Z " fill="#000000" transform="matrix(0.26098780315300796,0,0,0.26098780315300796,0,125.70230277513423)"/></g></svg>